<?xml version="1.0" encoding="UTF-8"?>
<svg id="Capa_1" data-name="Capa 1" xmlns="http://www.w3.org/2000/svg" version="1.1" viewBox="0 0 159.72 182.69">
  <defs>
    <style>
      .cls-1 {
        fill: #1d1d1b;
        stroke-width: 0px;
      }
    </style>
  </defs>
  <circle class="cls-1" cx="103.32" cy="23.45" r="23.45"/>
  <g>
    <path class="cls-1" d="M142.68,56.16c-.96.36-2.2,1.22-4.02,2.64-13.04,10.19-21.94,24.32-27.16,40.76.66,3.22,1.21,7.65,1.62,12.66.82,9.98,1.05,22.27.31,31.98,7.97-33.34,32.7-55.89,46.28-61.1-4.73-9.25-10.41-18.51-17.04-26.93Z"/>
    <path class="cls-1" d="M129.23,41.64c-3.91,2.89-9.15,8.37-12.45,13.98-5.64,9.58-9.17,20.26-6.32,37.17,1.36-11.46,17.39-34.01,29.62-39.83-3.38-4.04-7-7.84-10.85-11.32Z"/>
  </g>
  <path class="cls-1" d="M105.22,168.15c9.02-36.81,4.21-131.54-62.76-145.48-8.75-1.82-16.68,4.19-20.29,7.84-7.85,7.94-13.08,13.22-22.18,22.45,79.74,9.55,91.98,81.35,79.07,129.72,9.53-4.01,19.27-8.9,26.15-14.54Z"/>
</svg>